<!DOCTYPE svg PUBLIC "-//W3C//DTD SVG 1.1//EN" "http://www.w3.org/Graphics/SVG/1.1/DTD/svg11.dtd">
<!-- Uploaded to: SVG Repo, www.svgrepo.com, Transformed by: SVG Repo Mixer Tools -->
<svg fill="#ea580cff" version="1.1" id="Layer_1" xmlns="http://www.w3.org/2000/svg" xmlns:xlink="http://www.w3.org/1999/xlink" viewBox="0 0 499.128 499.128" xml:space="preserve" width="800px" height="800px" stroke="#ea580cff">
<g id="SVGRepo_bgCarrier" stroke-width="0"/>
<g id="SVGRepo_tracerCarrier" stroke-linecap="round" stroke-linejoin="round"/>
<g id="SVGRepo_iconCarrier"> <g> <g> <g> <path d="M497.564,151.472V94.288L257.564,0v57.184l16,6.288v84.264h-48v-32h-160v32h-64v128h16v176h-16v47.392h496v-47.392h-16 V145.184L497.564,151.472z M17.564,163.736h48v24h16v-56h128v56h16v-24h48v96h-256V163.736z M129.564,291.736v160h-96v-176h240 v176h-24v-160H129.564z M233.564,307.736v144h-88v-144H233.564z M481.564,483.128h-464v-15.392h464V483.128z M305.564,259.736 v192h-16V69.76l176,69.136v312.84h-16v-192H305.564z M433.564,339.736v16h-112v-16h16v-16h-16v-16h112v16h-80v16H433.564z M433.564,435.736v16h-112v-16h80v-16h-80v-16h112v16h-16v16H433.564z M321.564,387.736v-16h112v16H321.564z M321.564,291.736 v-16h112v16H321.564z M273.564,46.28V23.472l208,81.72v22.816L273.564,46.28z"/> <path d="M97.564,227.736h96v-80h-96V227.736z M113.564,163.736h64v48h-64V163.736z"/> <path d="M49.564,419.736h64v-128h-64V419.736z M65.564,307.736h32v96h-32V307.736z"/> <path d="M305.564,235.736h64v-88h-64V235.736z M321.564,163.736h32v56h-32V163.736z"/> <path d="M449.564,147.736h-64v88h64V147.736z M433.564,219.736h-32v-56h32V219.736z"/> <rect x="201.564" y="387.736" width="16" height="16"/> </g> </g> </g> </g>
</svg>