<svg width="50" height="50" viewBox="0 0 50 50" fill="none" xmlns="http://www.w3.org/2000/svg">
<path fill-rule="evenodd" clip-rule="evenodd" d="M10.4392 0.313789C8.73778 0.785183 7.99802 1.12397 6.34863 2.18752C5.17092 2.94674 4.68172 3.40109 3.61372 4.72717C2.06196 6.65366 1.28013 8.37038 0.730763 11.0572C0.048004 14.3962 0.284349 19.0877 1.33512 23.0489C1.70501 24.4435 3.21856 28.3238 3.39273 28.3238C3.4417 28.3238 3.9836 27.6932 4.59672 26.9224L5.71153 25.5211L5.12397 24.0542C3.84877 20.8701 3.34621 18.1988 3.34463 14.5965C3.34348 11.6899 3.62535 10.1036 4.52219 7.97076C6.34303 3.64064 10.7342 0.82502 15.2419 1.09759C17.6915 1.24581 19.713 2.19273 21.639 4.09392L22.5723 5.01535L21.8084 4.10863C20.4149 2.45435 18.6317 1.18175 16.757 0.50346C15.1999 -0.0599882 12.1214 -0.152401 10.4392 0.313789ZM34.4183 0.238424C33.1744 0.548679 31.4505 1.28278 30.3558 1.96825C29.3562 2.59432 27.8345 3.89581 27.5185 4.39502C27.4042 4.57572 27.5242 4.50358 27.7853 4.23496C28.606 3.39068 29.9997 2.51554 31.6267 1.82308C33.1816 1.16129 33.2215 1.15448 35.4952 1.15268C37.7141 1.15089 37.8321 1.16973 38.9463 1.70124C42.1812 3.24408 44.4284 6.40208 45.36 10.7141C45.8245 12.8649 45.791 16.1664 45.279 18.6759L44.8861 20.6022L46.0059 22.2319L47.1258 23.8618L47.4641 22.9077C48.3318 20.4612 48.829 16.4596 48.6188 13.6144C48.4632 11.5063 48.1599 10.0839 47.4761 8.25428C45.8746 3.96974 43.1223 1.16165 39.6141 0.232502C38.4343 -0.080086 35.6826 -0.0768559 34.4183 0.238424ZM9.23761 22.4408C4.14097 28.877 -0.0158925 34.1567 4.56802e-05 34.1734C0.0159839 34.1901 1.02742 33.9344 2.24762 33.6051L4.4662 33.0065L11.5086 24.2054L18.5511 15.4043L25.6592 24.2849L32.767 33.1653L33.937 33.458L35.1069 33.7508L34.392 34.8505C33.5645 36.1232 32.9579 37.5317 32.6387 38.9202C32.2909 40.434 32.1101 42.9176 32.2706 43.9756C32.3469 44.4788 32.391 44.9136 32.3684 44.9417C32.3459 44.9701 31.554 44.7607 30.6088 44.4766C22.2136 41.9539 14.3177 37.0526 9.77449 31.5441C9.29045 30.9573 8.83657 30.4771 8.76593 30.4771C8.69542 30.4771 8.13414 31.11 7.51887 31.8834L6.40018 33.2897L7.6458 34.7067C13.6295 41.5139 21.69 46.4939 31.5988 49.506C32.6104 49.8134 33.463 50.0338 33.4934 49.9957C33.524 49.9575 33.4779 49.608 33.3912 49.2187C33.2005 48.3642 33.3191 45.633 33.6242 43.8455C33.892 42.2776 34.7745 40.0347 35.6481 38.702C36.391 37.5687 38.3895 35.3244 40.8797 32.8271C42.5975 31.1044 45.0791 28.1745 45.0112 27.9493C44.9503 27.748 42.8678 25.4527 42.7459 25.4527C42.6864 25.4527 42.3412 25.8864 41.9786 26.4167C41.6162 26.9469 40.1433 28.5748 38.7055 30.0344L36.0914 32.688L27.3493 21.7133C22.5411 15.6771 18.584 10.7385 18.5556 10.7385C18.5273 10.7385 14.3341 16.0046 9.23761 22.4408ZM33.3886 18.1663L29.4154 23.2097L29.9773 24.0172L30.5393 24.8247L34.0233 20.4734L37.5073 16.1221L42.2888 22.0993L47.0701 28.0767L48.4635 28.4693C49.2299 28.6854 49.9206 28.8621 49.9984 28.8621C50.0762 28.8621 47.2974 25.3092 43.8233 20.9667C40.3492 16.6242 37.4741 13.0829 37.4342 13.0971C37.3944 13.1112 35.5739 15.3925 33.3886 18.1663ZM35.567 22.3125V23.2994H36.4285H37.29V22.3125V21.3256H36.4285H35.567V22.3125ZM37.7208 22.3125V23.2994H38.5823H39.4439V22.3125V21.3256H38.5823H37.7208V22.3125ZM15.6083 24.5555V25.9911H16.9724H18.3365V24.5555V23.12H16.9724H15.6083V24.5555ZM18.9108 24.5555V25.9911H20.2749H21.639V24.5555V23.12H20.2749H18.9108V24.5555ZM35.567 24.8247V25.8116H36.4285H37.29V24.8247V23.8377H36.4285H35.567V24.8247ZM37.7208 24.8247V25.8116H38.5823H39.4439V24.8247V23.8377H38.5823H37.7208V24.8247ZM15.6083 28.3238V29.7593H16.9724H18.3365V28.3238V26.8883H16.9724H15.6083V28.3238ZM18.9108 28.3238V29.7593H20.2749H21.639V28.3238V26.8883H20.2749H18.9108V28.3238Z" fill="#EA580C"/>
</svg>
